<?xml version="1.0" encoding="utf-8"?>
<!-- Generator: Adobe Illustrator 22.1.0, SVG Export Plug-In . SVG Version: 6.00 Build 0)  -->
<!DOCTYPE svg PUBLIC "-//W3C//DTD SVG 1.1//EN" "http://www.w3.org/Graphics/SVG/1.1/DTD/svg11.dtd">
<svg version="1.1" id="Layer_1" xmlns="http://www.w3.org/2000/svg" xmlns:xlink="http://www.w3.org/1999/xlink" x="0px" y="0px"
	 viewBox="0 0 1080 1080" style="enable-background:new 0 0 1080 1080;" xml:space="preserve">
<rect x="234.2" y="251.6" transform="matrix(0.6764 0.7365 -0.7365 0.6764 329.1068 -117.5951)" width="128.3" height="128.3"/>
<rect x="88.2" y="333.2" transform="matrix(0.9978 6.613195e-02 -6.613195e-02 0.9978 26.6129 -9.2053)" width="128.3" height="128.3"/>
<polygon points="353,603.3 251.7,526.7 175.5,629.8 276.6,706.4 "/>
<rect x="102" y="669.8" transform="matrix(0.9276 0.3736 -0.3736 0.9276 286.1949 -8.938)" width="128.3" height="128.3"/>
<rect x="314.7" y="802.3" transform="matrix(0.968 -0.2509 0.2509 0.968 -205.3039 122.7804)" width="128.3" height="128.3"/>
<rect x="653.9" y="659.1" transform="matrix(0.9936 -0.1129 0.1129 0.9936 -77.0184 85.6434)" width="127.5" height="127.5"/>
<rect x="848.1" y="566.6" transform="matrix(0.9002 -0.4355 0.4355 0.9002 -183.5028 460.0063)" width="127.5" height="127.5"/>
<polygon points="715.2,284.6 654.7,396.7 764.7,456.7 825.3,344.5 "/>
<polygon points="958.7,231.6 837.9,272.3 878.2,393.4 999,352.6 "/>
<rect x="780.2" y="789.8" transform="matrix(0.9638 0.2666 -0.2666 0.9638 258.0655 -194.0829)" width="127.5" height="127.5"/>
<rect x="496.6" y="280.4" transform="matrix(0.9799 -0.1996 0.1996 0.9799 -49.9501 109.3668)" width="41.7" height="44.1"/>
<rect x="455.6" y="453.1" transform="matrix(0.9729 0.2311 -0.2311 0.9729 122.7028 -97.399)" width="43.2" height="44.1"/>
<rect x="65.4" y="485.6" transform="matrix(0.8719 0.4898 -0.4898 0.8719 259.9123 22.3685)" width="43.7" height="44.5"/>
<rect x="568.8" y="500.7" transform="matrix(0.7893 0.6141 -0.6141 0.7893 445.4238 -252.4046)" width="43.2" height="44.1"/>
<rect x="889.9" y="420.1" transform="matrix(0.966 0.2585 -0.2585 0.966 145.2791 -220.5887)" width="43.2" height="44.1"/>
<rect x="411.5" y="623.5" transform="matrix(0.9742 0.2256 -0.2256 0.9742 156.7752 -80.9842)" width="42.5" height="43.9"/>
<rect x="451.8" y="690.9" transform="matrix(0.9945 -0.1045 0.1045 0.9945 -71.904 53.3316)" width="42.5" height="43.9"/>
<rect x="612" y="784.1" transform="matrix(0.8377 -0.5462 0.5462 0.8377 -337.4245 476.67)" width="42.5" height="43.9"/>
<rect x="255.8" y="882.2" transform="matrix(0.9632 0.2689 -0.2689 0.9632 253.312 -41.1864)" width="42.5" height="43.9"/>
</svg>
